<?xml version="1.0" encoding="UTF-8"?>
<svg width="478px" height="186px" viewBox="0 0 478 186" version="1.1" xmlns="http://www.w3.org/2000/svg" xmlns:xlink="http://www.w3.org/1999/xlink">
    <!-- Generator: Sketch 44.1 (41455) - http://www.bohemiancoding.com/sketch -->
    <title>Group 5</title>
    <desc>Created with Sketch.</desc>
    <defs></defs>
    <g id="Page-1" stroke="none" stroke-width="1" fill="none" fill-rule="evenodd">
        <g id="Group-5" fill="#ECEFF1">
            <path d="M187.351218,131.260875 C187.032218,129.075875 183.578218,128.192875 182.220218,129.905875 C180.464218,132.123875 178.638218,133.837875 176.764218,135.147875 C175.555218,134.631875 174.139218,134.620875 173.083218,135.393875 C171.683218,136.417875 170.442218,137.356875 169.246218,138.252875 C153.932218,140.732875 136.838218,122.770875 125.570218,112.825875 C114.502218,103.058875 103.761218,95.4288751 88.7002176,93.6238751 C59.1742176,90.0848751 10.2302176,101.126875 11.0792176,138.982875 C11.1662176,142.879875 16.5192176,142.652875 16.9672176,138.982875 C20.0812176,113.511875 44.1242176,102.993875 67.0062176,99.9518751 C86.9332176,97.3038751 103.223218,102.140875 118.262218,115.083875 C129.507218,124.762875 144.521218,140.055875 159.391218,144.189875 C156.879218,145.158875 154.014218,145.849875 150.264218,146.181875 C136.921218,147.365875 123.091218,145.365875 109.972218,143.179875 C87.9512176,139.509875 63.7512176,135.058875 43.1972176,125.976875 C39.6682176,124.415875 36.5912176,129.265875 40.1032176,131.269875 C64.4662176,145.179875 94.4692176,151.865875 121.930218,155.749875 C132.816218,157.289875 179.324218,161.770875 179.484218,141.127875 C179.905218,140.832875 180.328218,140.548875 180.745218,140.218875 C175.395218,172.652875 132.888218,176.812875 104.864218,175.943875 C76.1032176,175.052875 30.1952176,168.781875 10.4062176,144.902875 C9.39221756,143.679875 7.33421756,145.285875 8.21321756,146.593875 C37.5982176,190.375875 198.962218,210.673875 187.351218,131.260875 Z" id="Shape" fill-rule="nonzero"></path>
            <path d="M30.9662844,71.6833392 C28.8562844,68.5913392 25.0732844,68.1103392 22.2462844,70.5593392 C19.1432844,73.2473392 20.1332844,79.2383392 20.2102844,82.9343392 C20.2932844,86.9363392 20.7072844,91.0483392 21.5322844,94.9633392 C22.3142844,98.6743392 27.5702844,99.0453392 29.3542844,95.9843392 C31.4992844,92.3083392 31.5632844,87.9473392 31.7662844,83.8093392 C31.9252844,80.5533392 32.8572844,74.4543392 30.9662844,71.6833392 Z" id="Shape" fill-rule="nonzero"></path>
            <path d="M158.088768,44.0168992 C141.828768,31.8838992 120.936768,21.2168992 110.354768,3.28289924 C108.656768,0.402899242 104.356768,-1.09910076 101.426768,0.941899242 C67.724768,24.4088992 24.581768,41.8698992 0.745767963,76.8608992 C-2.17223204,81.1438992 4.17376796,85.6138992 7.70576796,82.2308992 C36.145768,54.9898992 70.794768,37.6248992 103.020768,15.6548992 C111.226768,26.4778992 122.628768,34.5258992 133.617768,42.4088992 C141.339768,47.9488992 149.169768,53.3008992 156.531768,59.3238992 C157.961768,60.4938992 159.230768,61.7478992 160.417768,63.0468992 C157.283768,62.8488992 153.982768,64.7308992 154.057768,68.7368992 C154.378768,86.2628992 154.097768,104.288899 156.333768,121.688899 C156.935768,126.371899 163.016768,126.371899 163.617768,121.688899 C165.807768,104.638899 165.585768,86.9898992 165.878768,69.7968992 C167.509768,71.9278992 169.165768,74.0518992 171.077768,76.0538992 C174.556768,79.6968992 180.118768,76.7358992 180.402768,72.1908992 C181.147768,60.2968992 166.413768,50.2278992 158.088768,44.0168992 Z" id="Shape" fill-rule="nonzero"></path>
            <path d="M110.082882,47.0760646 C100.471882,48.9780646 90.724882,48.1300646 81.042882,49.2650646 C79.004882,49.5040646 77.935882,51.1750646 77.863882,52.7870646 C77.101882,51.7530646 75.077882,51.7670646 74.770882,53.2950646 C73.134882,61.4360646 72.410882,69.6420646 72.002882,77.9290646 C71.935882,79.2950646 73.045882,80.8320646 74.414882,81.0960646 C86.130882,83.3590646 97.988882,82.8300646 109.821882,83.8430646 C111.800882,84.0120646 113.415882,82.0720646 113.433882,80.2310646 C113.529882,70.2450646 114.398882,60.2950646 114.317882,50.3020646 C114.299882,48.0090646 112.206882,46.6560646 110.082882,47.0760646 Z M78.073882,65.8480646 C78.135882,65.8710646 78.173882,65.9120646 78.241882,65.9300646 C82.550882,67.0860646 86.897882,67.8010646 91.309882,68.3140646 C91.395882,70.8370646 91.606882,73.3370646 91.703882,75.6270646 C91.708882,75.7560646 91.760882,75.8490646 91.782882,75.9660646 C87.320882,75.8490646 82.864882,75.6480646 78.435882,75.0670646 C78.285882,71.9900646 78.153882,68.9190646 78.073882,65.8480646 Z M106.324882,76.3850646 C102.757882,76.1880646 99.181882,76.1240646 95.607882,76.0550646 C95.642882,75.9120646 95.701882,75.7890646 95.708882,75.6260646 C95.806882,73.3650646 95.935882,71.1070646 96.093882,68.8500646 C99.605882,69.2320646 103.323882,69.5430646 106.685882,68.8400646 C106.550882,71.3540646 106.403882,73.8680646 106.324882,76.3850646 Z M106.919882,64.1040646 C103.633882,63.3710646 100.119882,63.6470646 96.725882,63.7310646 C97.036882,61.9390646 97.331882,60.1470646 97.254882,58.3580646 C97.160882,56.1960646 93.800882,54.8000646 92.785882,57.1480646 C91.923882,59.1440646 91.520882,61.3730646 91.360882,63.6800646 C87.293882,63.5120646 83.251882,63.0770646 79.241882,62.3000646 C78.768882,62.2090646 78.369882,62.3030646 78.021882,62.4720646 C77.996882,59.7540646 78.014882,57.0350646 78.152882,54.3090646 C78.591882,55.3120646 79.524882,56.0510646 81.043882,55.9410646 C89.863882,55.3040646 98.710882,55.4460646 107.457882,54.2450646 C107.310882,57.5350646 107.111882,60.8190646 106.919882,64.1040646 Z" id="Shape" fill-rule="nonzero"></path>
            <path d="M264.415039,34.027832 L264.415039,43.8657227 C259.614885,39.8497521 254.648463,37.8417969 249.515625,37.8417969 C243.859998,37.8417969 239.09556,39.8735148 235.222168,43.9370117 C231.325013,47.9767455 229.376465,52.9194044 229.376465,58.7651367 C229.376465,64.5395797 231.325013,69.4109502 235.222168,73.3793945 C239.119323,77.3478389 243.895642,79.3320312 249.55127,79.3320312 C252.474136,79.3320312 254.957347,78.8567756 257.000977,77.90625 C258.141607,77.4309872 259.323806,76.7893921 260.547607,75.9814453 C261.771409,75.1734986 263.06054,74.1992245 264.415039,73.0585938 L264.415039,83.074707 C259.662411,85.7599418 254.672227,87.1025391 249.444336,87.1025391 C241.578737,87.1025391 234.86575,84.3579376 229.305176,78.8686523 C223.768364,73.3318408 221,66.6544987 221,58.8364258 C221,51.8262996 223.316871,45.5766876 227.950684,40.0874023 C233.653837,33.3624338 241.032181,30 250.085938,30 C255.028671,30 259.80499,31.3425973 264.415039,34.027832 Z M271.761272,68.4960938 C271.761272,63.4820713 273.555362,59.2166517 277.143596,55.699707 C280.73183,52.1827624 285.104183,50.4243164 290.260784,50.4243164 C295.441148,50.4243164 299.837263,52.1946438 303.44926,55.7353516 C307.013731,59.2760594 308.79594,63.6246487 308.79594,68.78125 C308.79594,73.9853776 307.00185,78.3458483 303.413616,81.862793 C299.801619,85.3559745 295.36986,87.1025391 290.118206,87.1025391 C284.914078,87.1025391 280.553607,85.3203303 277.036663,81.7558594 C273.519718,78.2389147 271.761272,73.819037 271.761272,68.4960938 Z M279.959514,68.6386719 C279.959514,72.1080903 280.886263,74.8526917 282.739788,76.8725586 C284.640839,78.9161886 287.147813,79.9379883 290.260784,79.9379883 C293.397518,79.9379883 295.904492,78.92807 297.78178,76.9082031 C299.659068,74.8883363 300.597698,72.1912604 300.597698,68.8168945 C300.597698,65.4425287 299.659068,62.7454528 297.78178,60.7255859 C295.880729,58.6819559 293.373755,57.6601562 290.260784,57.6601562 C287.195339,57.6601562 284.712128,58.6819559 282.811077,60.7255859 C280.910026,62.7692159 279.959514,65.4068849 279.959514,68.6386719 Z M326.015708,58.8720703 L326.015708,86.1044922 L317.995689,86.1044922 L317.995689,58.8720703 L314.573814,58.8720703 L314.573814,51.3867188 L317.995689,51.3867188 L317.995689,38.6616211 L326.015708,38.6616211 L326.015708,51.3867188 L332.253501,51.3867188 L332.253501,58.8720703 L326.015708,58.8720703 Z M346.01575,58.8720703 L346.01575,86.1044922 L337.995731,86.1044922 L337.995731,58.8720703 L334.573856,58.8720703 L334.573856,51.3867188 L337.995731,51.3867188 L337.995731,38.6616211 L346.01575,38.6616211 L346.01575,51.3867188 L352.253543,51.3867188 L352.253543,58.8720703 L346.01575,58.8720703 Z M383.980636,51.3867188 L392.0363,51.3867188 L392.0363,86.1044922 L383.980636,86.1044922 L383.980636,82.46875 C380.677559,85.5579582 377.125023,87.1025391 373.322921,87.1025391 C368.522767,87.1025391 364.554382,85.3678559 361.417647,81.8984375 C358.304676,78.3577297 356.748214,73.937852 356.748214,68.6386719 C356.748214,63.4345443 358.304676,59.0978364 361.417647,55.628418 C364.530619,52.1589996 368.427715,50.4243164 373.109054,50.4243164 C377.148787,50.4243164 380.772612,52.0877112 383.980636,55.4145508 L383.980636,51.3867188 Z M364.946456,68.6386719 C364.946456,71.9655114 365.83756,74.6744687 367.619796,76.765625 C369.449558,78.8805444 371.754548,79.9379883 374.534835,79.9379883 C377.505227,79.9379883 379.905268,78.9161886 381.73503,76.8725586 C383.564792,74.7576392 384.479659,72.0724447 384.479659,68.8168945 C384.479659,65.5613444 383.564792,62.8761499 381.73503,60.7612305 C379.905268,58.6938373 377.52899,57.6601562 374.606124,57.6601562 C371.8496,57.6601562 369.54461,58.7057187 367.691085,60.796875 C365.861323,62.9117944 364.946456,65.5257006 364.946456,68.6386719 Z M435.775599,85.284668 C435.775599,86.9243246 435.722133,88.3679137 435.615199,89.6154785 C435.508265,90.8630433 435.359747,91.9620721 435.169642,92.9125977 C434.599327,95.526543 433.482476,97.772126 431.819056,99.6494141 C428.682322,103.261411 424.369377,105.067383 418.880091,105.067383 C414.246279,105.067383 410.432352,103.819837 407.438197,101.324707 C404.348989,98.7582879 402.56678,95.2057519 402.091517,90.6669922 L410.147181,90.6669922 C410.456102,92.3779382 410.967002,93.6967727 411.679896,94.6235352 C413.343316,96.7859809 415.76712,97.8671875 418.95138,97.8671875 C424.820876,97.8671875 427.75558,94.2671258 427.75558,87.0668945 L427.75558,82.2192383 C424.571319,85.4747884 420.899969,87.1025391 416.74142,87.1025391 C412.012555,87.1025391 408.139221,85.3916187 405.121302,81.9697266 C402.07962,78.5003082 400.558802,74.1636002 400.558802,68.9594727 C400.558802,63.8979239 401.972688,59.5968602 404.800502,56.0561523 C407.842183,52.3015763 411.858094,50.4243164 416.848353,50.4243164 C421.220771,50.4243164 424.856477,52.0520671 427.75558,55.3076172 L427.75558,51.3867188 L435.775599,51.3867188 L435.775599,85.284668 Z M428.07638,68.8168945 C428.07638,65.4425287 427.173395,62.7454528 425.367396,60.7255859 C423.537634,58.6581928 421.197,57.6245117 418.345423,57.6245117 C415.303742,57.6245117 412.9037,58.7532439 411.145228,61.0107422 C409.553098,63.0306091 408.757045,65.6445152 408.757045,68.8525391 C408.757045,72.0130366 409.553098,74.60318 411.145228,76.6230469 C412.879937,78.8330189 415.279978,79.9379883 418.345423,79.9379883 C421.410868,79.9379883 423.834672,78.8211375 425.616908,76.5874023 C427.256564,74.5675355 428.07638,71.9773921 428.07638,68.8168945 Z M477.55445,70.6347656 L452.674567,70.6347656 C452.888435,73.4863424 453.815184,75.7556882 455.45484,77.4428711 C457.094497,79.1062909 459.197503,79.9379883 461.763922,79.9379883 C463.760026,79.9379883 465.411539,79.4627326 466.718512,78.512207 C468.001722,77.5616814 469.463133,75.8032355 471.102789,73.2368164 L477.87525,77.0151367 C476.829672,78.7973722 475.724703,80.324131 474.560309,81.595459 C473.395915,82.866787 472.148369,83.9123494 470.817633,84.7321777 C469.486897,85.5520061 468.049249,86.1520163 466.504645,86.5322266 C464.960041,86.9124368 463.284765,87.1025391 461.478766,87.1025391 C456.298401,87.1025391 452.139914,85.4391442 449.00318,82.1123047 C445.866446,78.761702 444.298102,74.3180615 444.298102,68.78125 C444.298102,63.2919647 445.81892,58.8483243 448.860602,55.4501953 C451.926047,52.0995926 455.989483,50.4243164 461.051032,50.4243164 C466.160107,50.4243164 470.19978,52.0520671 473.170172,55.3076172 C476.116802,58.5394042 477.590094,63.0186888 477.590094,68.7456055 L477.55445,70.6347656 Z M469.320563,64.0761719 C468.203695,59.7988067 465.506619,57.6601562 461.229254,57.6601562 C460.254965,57.6601562 459.340098,57.8086736 458.484625,58.1057129 C457.629152,58.4027521 456.850921,58.8304822 456.149909,59.388916 C455.448896,59.9473498 454.848886,60.6186484 454.34986,61.402832 C453.850834,62.1870156 453.470629,63.07812 453.209235,64.0761719 L469.320563,64.0761719 Z" id="Cottage"></path>
            <path d="M248.96582,131.302734 L265.788086,131.302734 L265.788086,132.647461 C265.788086,135.70607 265.427738,138.413074 264.707031,140.768555 C264.003903,142.948253 262.817391,144.987295 261.147461,146.885742 C257.368145,151.13967 252.560576,153.266602 246.724609,153.266602 C241.029268,153.266602 236.151387,151.209982 232.09082,147.09668 C228.030253,142.9658 226,138.008818 226,132.225586 C226,126.319306 228.065409,121.309591 232.196289,117.196289 C236.327169,113.065409 241.354463,111 247.27832,111 C250.459977,111 253.43065,111.650384 256.19043,112.951172 C258.827162,114.25196 261.419909,116.361314 263.96875,119.279297 L259.591797,123.47168 C256.251936,119.024392 252.182641,116.800781 247.383789,116.800781 C243.077127,116.800781 239.464858,118.286118 236.546875,121.256836 C233.628892,124.174819 232.169922,127.831033 232.169922,132.225586 C232.169922,136.760765 233.795882,140.496079 237.047852,143.431641 C240.088882,146.156264 243.384748,147.518555 246.935547,147.518555 C249.958999,147.518555 252.674793,146.499034 255.083008,144.459961 C257.491223,142.40331 258.835936,139.942397 259.117188,137.077148 L248.96582,137.077148 L248.96582,131.302734 Z M295.796505,141.058594 L277.392208,141.058594 C277.550412,143.167979 278.235952,144.846673 279.448848,146.094727 C280.661745,147.325201 282.217393,147.94043 284.11584,147.94043 C285.59241,147.94043 286.814078,147.588871 287.78088,146.885742 C288.730103,146.182614 289.811147,144.881845 291.024044,142.983398 L296.033809,145.77832 C295.260368,147.096686 294.442993,148.22607 293.581661,149.166504 C292.720328,150.106938 291.797486,150.880368 290.813106,151.486816 C289.828726,152.093265 288.76526,152.537108 287.622676,152.818359 C286.480093,153.099611 285.240847,153.240234 283.904903,153.240234 C280.072853,153.240234 276.996711,152.009778 274.676387,149.548828 C272.356063,147.0703 271.195919,143.783224 271.195919,139.6875 C271.195919,135.626933 272.320907,132.339856 274.570919,129.826172 C276.838508,127.347644 279.844337,126.108398 283.588497,126.108398 C287.367812,126.108398 290.356064,127.312488 292.55334,129.720703 C294.733039,132.11134 295.822872,135.424784 295.822872,139.661133 L295.796505,141.058594 Z M289.705684,136.207031 C288.879508,133.042953 286.884411,131.460938 283.720333,131.460938 C282.999626,131.460938 282.322875,131.5708 281.690059,131.790527 C281.057244,132.010255 280.481566,132.326658 279.963008,132.739746 C279.444451,133.152834 279.000608,133.649411 278.631465,134.229492 C278.262323,134.809573 277.981076,135.468746 277.787715,136.207031 L289.705684,136.207031 Z M308.903556,132.357422 L308.903556,152.501953 L302.970939,152.501953 L302.970939,132.357422 L300.439689,132.357422 L300.439689,126.820312 L302.970939,126.820312 L302.970939,117.407227 L308.903556,117.407227 L308.903556,126.820312 L313.517814,126.820312 L313.517814,132.357422 L308.903556,132.357422 Z M336.98717,126.820312 L342.946154,126.820312 L342.946154,152.501953 L336.98717,152.501953 L336.98717,149.8125 C334.543798,152.097668 331.915895,153.240234 329.103381,153.240234 C325.552582,153.240234 322.617064,151.957044 320.29674,149.390625 C317.993994,146.771471 316.842639,143.501973 316.842639,139.582031 C316.842639,135.732403 317.993994,132.524427 320.29674,129.958008 C322.599486,127.391589 325.48227,126.108398 328.945178,126.108398 C331.933474,126.108398 334.614111,127.338855 336.98717,129.799805 L336.98717,126.820312 Z M322.907092,139.582031 C322.907092,142.042981 323.566265,144.046867 324.884631,145.59375 C326.238153,147.158211 327.943214,147.94043 329.999865,147.94043 C332.197142,147.94043 333.972515,147.184578 335.326037,145.672852 C336.679559,144.108391 337.35631,142.122082 337.35631,139.713867 C337.35631,137.305652 336.679559,135.319344 335.326037,133.754883 C333.972515,132.225578 332.21472,131.460938 330.0526,131.460938 C328.013527,131.460938 326.308466,132.234367 324.937365,133.78125 C323.583843,135.345711 322.907092,137.279285 322.907092,139.582031 Z M354.154768,126.820312 L360.878401,141.480469 L368.129378,124.473633 L375.433088,141.480469 L382.07762,126.820312 L388.722151,126.820312 L375.274885,154.426758 L368.129378,137.894531 L360.904768,154.426758 L347.48387,126.820312 L354.154768,126.820312 Z M410.820413,126.820312 L416.779398,126.820312 L416.779398,152.501953 L410.820413,152.501953 L410.820413,149.8125 C408.377042,152.097668 405.749138,153.240234 402.936624,153.240234 C399.385825,153.240234 396.450308,151.957044 394.129984,149.390625 C391.827238,146.771471 390.675882,143.501973 390.675882,139.582031 C390.675882,135.732403 391.827238,132.524427 394.129984,129.958008 C396.43273,127.391589 399.315513,126.108398 402.778421,126.108398 C405.766717,126.108398 408.447355,127.338855 410.820413,129.799805 L410.820413,126.820312 Z M396.740335,139.582031 C396.740335,142.042981 397.399508,144.046867 398.717874,145.59375 C400.071397,147.158211 401.776458,147.94043 403.833109,147.94043 C406.030385,147.94043 407.805758,147.184578 409.15928,145.672852 C410.512803,144.108391 411.189554,142.122082 411.189554,139.713867 C411.189554,137.305652 410.512803,135.319344 409.15928,133.754883 C407.805758,132.225578 406.047963,131.460938 403.885843,131.460938 C401.84677,131.460938 400.141709,132.234367 398.770609,133.78125 C397.417086,135.345711 396.740335,137.279285 396.740335,139.582031 Z M432.865941,147.729492 L421.317113,126.820312 L428.198949,126.820312 L436.056371,141.585938 L443.386449,126.820312 L450.083715,126.820312 L429.622777,166.476562 L422.84641,166.476562 L432.865941,147.729492 Z M469.070649,131.197266 L464.166352,133.807617 C463.392911,132.225578 462.434912,131.43457 461.292329,131.43457 C460.747404,131.43457 460.281588,131.614744 459.894868,131.975098 C459.508147,132.335451 459.31479,132.796872 459.31479,133.359375 C459.31479,134.343755 460.457356,135.319331 462.742524,136.286133 C465.889024,137.639655 468.007167,138.88769 469.097016,140.030273 C470.186865,141.172857 470.731782,142.710928 470.731782,144.644531 C470.731782,147.123059 469.817728,149.197257 467.989594,150.867188 C466.214195,152.449227 464.069685,153.240234 461.556,153.240234 C457.249338,153.240234 454.199564,151.139669 452.406586,146.938477 L457.469086,144.591797 C458.172215,145.822272 458.708342,146.604491 459.077485,146.938477 C459.798192,147.606449 460.659511,147.94043 461.661469,147.94043 C463.665386,147.94043 464.667329,147.026376 464.667329,145.198242 C464.667329,144.143549 463.893899,143.159184 462.347016,142.245117 C461.749357,141.946288 461.151707,141.656251 460.554047,141.375 C459.956388,141.093749 459.349949,140.803712 458.734711,140.504883 C457.012047,139.661129 455.799168,138.817387 455.09604,137.973633 C454.199551,136.901362 453.751313,135.521493 453.751313,133.833984 C453.751313,131.601551 454.515954,129.755867 456.045258,128.296875 C457.609719,126.837883 459.508138,126.108398 461.740571,126.108398 C465.027697,126.108398 467.471032,127.804671 469.070649,131.197266 Z" id="Getaways"></path>
        </g>
    </g>
</svg>